<svg width="24" height="24" viewBox="0 0 24 24" fill="none" xmlns="http://www.w3.org/2000/svg">
<path d="M22 3.93994L12 0.439941L2 3.93994V11.9999C2 16.1269 4.534 19.0119 6.896 20.8029C8.32208 21.8734 9.88622 22.7463 11.546 23.3979C11.6593 23.4406 11.7733 23.4813 11.888 23.5199L12 23.5599L12.114 23.5199C12.3327 23.444 12.5494 23.3626 12.764 23.2759C14.3097 22.6391 15.7681 21.8081 17.104 20.8029C19.467 19.0119 22 16.1269 22 11.9999V3.93994ZM11.001 15.4149L6.76 11.1719L8.174 9.75694L11.002 12.5859L16.659 6.92894L18.074 8.34294L11.001 15.4149Z" fill="#206CFE"/>
</svg>
