<svg width="24" height="24" viewBox="0 0 24 24" fill="none" xmlns="http://www.w3.org/2000/svg">
<path d="M2.7501 12C2.74854 13.2145 2.98668 14.4173 3.45086 15.5396C3.91504 16.6618 4.59613 17.6815 5.4551 18.54C6.31449 19.3996 7.33486 20.0814 8.4579 20.5464C9.58093 21.0114 10.7846 21.2505 12.0001 21.25C13.3083 21.2529 14.6021 20.9767 15.7951 20.44L19.6621 21.012C19.8541 21.0433 20.0508 21.0274 20.2353 20.9654C20.4197 20.9034 20.5862 20.7974 20.7203 20.6565C20.8544 20.5155 20.9521 20.344 21.0049 20.1568C21.0576 19.9695 21.0639 19.7722 21.0231 19.582L20.4861 15.659C20.9969 14.5072 21.2573 13.26 21.2501 12C21.2517 10.7855 21.0135 9.5827 20.5493 8.46044C20.0852 7.33817 19.4041 6.31855 18.5451 5.46C17.6857 4.60042 16.6653 3.91864 15.5423 3.45364C14.4193 2.98864 13.2156 2.74954 12.0001 2.75C9.54548 2.75016 7.19136 3.72491 5.4551 5.46C4.59657 6.31888 3.91577 7.33856 3.45162 8.46075C2.98748 9.58294 2.74909 10.7856 2.7501 12Z" stroke="#4E4E4E" stroke-width="2.5" stroke-linecap="round" stroke-linejoin="round"/>
</svg>
