<svg width="31" height="31" viewBox="0 0 31 31" fill="none" xmlns="http://www.w3.org/2000/svg">
<path d="M28.1778 5.99493C28.0619 5.86214 27.9198 5.75481 27.7603 5.67971C27.6009 5.6046 27.4276 5.56334 27.2514 5.55855C24.515 5.48701 21.0526 2.56109 18.7633 1.41289C17.3493 0.705854 16.4157 0.239662 15.7146 0.116854C15.5723 0.0956659 15.4276 0.0960679 15.2854 0.118047C14.5843 0.240854 13.6507 0.707047 12.2378 1.41409C9.94862 2.56109 6.48615 5.48701 3.74981 5.55855C3.57355 5.56389 3.40027 5.60539 3.2407 5.68045C3.08114 5.75552 2.93869 5.86255 2.82219 5.99493C2.58105 6.26833 2.45651 6.62525 2.47523 6.98932C3.06304 18.9398 7.34938 26.3357 14.8705 30.634C15.066 30.7449 15.283 30.8021 15.4988 30.8021C15.7146 30.8021 15.9316 30.7449 16.1283 30.634C23.6494 26.3357 27.9346 18.9398 28.5236 6.98932C28.5439 6.62523 28.4196 6.26785 28.1778 5.99493ZM22.1972 10.695L15.8505 20.0606C15.6228 20.3968 15.2651 20.6198 14.911 20.6198C14.5569 20.6198 14.161 20.4254 13.9118 20.1762L9.43831 15.7015C9.29225 15.5549 9.21025 15.3564 9.21025 15.1495C9.21025 14.9425 9.29225 14.744 9.43831 14.5974L10.5436 13.4898C10.6908 13.3449 10.8891 13.2637 11.0956 13.2637C11.3022 13.2637 11.5004 13.3449 11.6477 13.4898L14.5569 16.399L19.6111 8.93874C19.728 8.76802 19.9078 8.65051 20.111 8.61186C20.3143 8.57322 20.5246 8.61657 20.6961 8.73247L21.9897 9.61001C22.1606 9.72676 22.2784 9.90641 22.3173 10.1097C22.3561 10.313 22.313 10.5234 22.1972 10.695Z" fill="#1E1E1E"/>
</svg>
