<svg width="100" height="100" viewBox="0 0 100 100" fill="none" xmlns="http://www.w3.org/2000/svg">
<rect width="100" height="100" rx="50" fill="#BDFFE9"/>
<path opacity="0.32" d="M43.75 41.25C40.9925 41.25 38.75 43.4925 38.75 46.25C38.75 49.0075 40.9925 51.25 43.75 51.25C46.5075 51.25 48.75 49.0075 48.75 46.25C48.75 43.4925 46.5075 41.25 43.75 41.25ZM41.875 49.835V42.665L47.2537 46.25L41.875 49.835ZM63.75 32.5H36.25C33.4925 32.5 31.25 34.7425 31.25 37.5V55C31.25 57.7575 33.4925 60 36.25 60H63.75C66.5075 60 68.75 57.7575 68.75 55V37.5C68.75 34.7425 66.5075 32.5 63.75 32.5ZM43.75 53.75C39.6137 53.75 36.25 50.3862 36.25 46.25C36.25 42.1137 39.6137 38.75 43.75 38.75C47.8862 38.75 51.25 42.1137 51.25 46.25C51.25 50.3862 47.8862 53.75 43.75 53.75ZM63.75 52.5H53.75V50H63.75V52.5ZM63.75 47.5H53.75V45H63.75V47.5ZM63.75 42.5H53.75V40H63.75V42.5Z" fill="#00A76F"/>
<path d="M53.75 65V62.5H46.25V65H41.25V67.5H58.75V65H53.75Z" fill="#00A76F"/>
<path d="M43.75 41.25C40.9925 41.25 38.75 43.4925 38.75 46.25C38.75 49.0075 40.9925 51.25 43.75 51.25C46.5075 51.25 48.75 49.0075 48.75 46.25C48.75 43.4925 46.5075 41.25 43.75 41.25ZM41.875 49.835V42.665L47.2537 46.25L41.875 49.835ZM43.75 53.75C39.6137 53.75 36.25 50.3862 36.25 46.25C36.25 42.1137 39.6137 38.75 43.75 38.75C47.8862 38.75 51.25 42.1137 51.25 46.25C51.25 50.3862 47.8862 53.75 43.75 53.75ZM63.75 52.5H53.75V50H63.75V52.5ZM63.75 47.5H53.75V45H63.75V47.5ZM63.75 42.5H53.75V40H63.75V42.5Z" fill="#00A76F"/>
</svg>
