<svg width="60" height="60" viewBox="0 0 60 60" fill="none" xmlns="http://www.w3.org/2000/svg">
<path opacity="0.5" d="M15.625 47.5C15.6247 47.8834 15.742 48.2577 15.961 48.5724C16.18 48.8871 16.4902 49.1271 16.8498 49.2601C17.2094 49.393 17.6012 49.4125 17.9722 49.3159C18.3433 49.2194 18.6758 49.0114 18.925 48.72L33.925 31.22C34.2162 30.8802 34.3762 30.4475 34.3762 30C34.3762 29.5525 34.2162 29.1198 33.925 28.78L18.925 11.28C18.6758 10.9886 18.3433 10.7806 17.9722 10.684C17.6012 10.5875 17.2094 10.607 16.8498 10.7399C16.4902 10.8729 16.18 11.1129 15.961 11.4276C15.742 11.7423 15.6247 12.1166 15.625 12.5V47.5Z" fill="#1877F2"/>
<path fill-rule="evenodd" clip-rule="evenodd" d="M26.2802 48.925C26.0931 48.7647 25.9395 48.5691 25.8281 48.3493C25.7166 48.1296 25.6496 47.8901 25.6308 47.6445C25.612 47.3988 25.6418 47.1519 25.7185 46.9178C25.7951 46.6836 25.9172 46.4669 26.0777 46.28L40.0302 30L26.0777 13.72C25.9155 13.5333 25.7918 13.3164 25.7139 13.0817C25.6359 12.847 25.6051 12.5992 25.6232 12.3526C25.6414 12.106 25.7082 11.8654 25.8197 11.6447C25.9313 11.424 26.0854 11.2275 26.2731 11.0666C26.4609 10.9057 26.6787 10.7835 26.9139 10.7071C27.1491 10.6307 27.3971 10.6016 27.6436 10.6214C27.8901 10.6412 28.1302 10.7096 28.3502 10.8227C28.5701 10.9357 28.7655 11.0911 28.9252 11.28L43.9252 28.78C44.2163 29.1198 44.3764 29.5525 44.3764 30C44.3764 30.4475 44.2163 30.8802 43.9252 31.22L28.9252 48.72C28.765 48.9072 28.5696 49.0611 28.3499 49.1727C28.1303 49.2844 27.8908 49.3516 27.6452 49.3707C27.3995 49.3897 27.1525 49.3601 26.9183 49.2837C26.6841 49.2072 26.4673 49.0853 26.2802 48.925Z" fill="#1877F2"/>
</svg>
