<svg width="100" height="100" viewBox="0 0 100 100" fill="none" xmlns="http://www.w3.org/2000/svg">
<rect width="100" height="100" rx="50" fill="#CCE2FF"/>
<path fill-rule="evenodd" clip-rule="evenodd" d="M42.075 33.3171H57.925C59.8567 33.3171 60.8217 33.3171 61.6017 33.5887C62.3371 33.8494 63.0025 34.2761 63.5462 34.8357C64.09 35.3953 64.4973 36.0728 64.7367 36.8154C65 37.6187 65 38.6121 65 40.6004V63.9404C65 65.3704 63.3583 66.1304 62.32 65.1804C62.0287 64.9112 61.6466 64.7618 61.25 64.7618C60.8534 64.7618 60.4713 64.9112 60.18 65.1804L59.375 65.9171C58.8647 66.389 58.1951 66.6511 57.5 66.6511C56.8049 66.6511 56.1353 66.389 55.625 65.9171C55.1147 65.4451 54.4451 65.183 53.75 65.183C53.0549 65.183 52.3853 65.4451 51.875 65.9171C51.3647 66.389 50.6951 66.6511 50 66.6511C49.3049 66.6511 48.6353 66.389 48.125 65.9171C47.6147 65.4451 46.9451 65.183 46.25 65.183C45.5549 65.183 44.8853 65.4451 44.375 65.9171C43.8647 66.389 43.1951 66.6511 42.5 66.6511C41.8049 66.6511 41.1353 66.389 40.625 65.9171L39.82 65.1804C39.5287 64.9112 39.1466 64.7618 38.75 64.7618C38.3534 64.7618 37.9713 64.9112 37.68 65.1804C36.6417 66.1304 35 65.3704 35 63.9404V40.6004C35 38.6121 35 37.6171 35.2633 36.8171C35.7633 35.2954 36.9217 34.1021 38.3983 33.5887C39.1783 33.3171 40.1433 33.3171 42.075 33.3171ZM41.6667 41.2337C41.3351 41.2337 41.0172 41.3654 40.7828 41.5999C40.5484 41.8343 40.4167 42.1522 40.4167 42.4837C40.4167 42.8153 40.5484 43.1332 40.7828 43.3676C41.0172 43.602 41.3351 43.7337 41.6667 43.7337H42.5C42.8315 43.7337 43.1495 43.602 43.3839 43.3676C43.6183 43.1332 43.75 42.8153 43.75 42.4837C43.75 42.1522 43.6183 41.8343 43.3839 41.5999C43.1495 41.3654 42.8315 41.2337 42.5 41.2337H41.6667ZM47.5 41.2337C47.1685 41.2337 46.8505 41.3654 46.6161 41.5999C46.3817 41.8343 46.25 42.1522 46.25 42.4837C46.25 42.8153 46.3817 43.1332 46.6161 43.3676C46.8505 43.602 47.1685 43.7337 47.5 43.7337H58.3333C58.6649 43.7337 58.9828 43.602 59.2172 43.3676C59.4516 43.1332 59.5833 42.8153 59.5833 42.4837C59.5833 42.1522 59.4516 41.8343 59.2172 41.5999C58.9828 41.3654 58.6649 41.2337 58.3333 41.2337H47.5ZM41.6667 47.0671C41.3351 47.0671 41.0172 47.1988 40.7828 47.4332C40.5484 47.6676 40.4167 47.9856 40.4167 48.3171C40.4167 48.6486 40.5484 48.9665 40.7828 49.201C41.0172 49.4354 41.3351 49.5671 41.6667 49.5671H42.5C42.8315 49.5671 43.1495 49.4354 43.3839 49.201C43.6183 48.9665 43.75 48.6486 43.75 48.3171C43.75 47.9856 43.6183 47.6676 43.3839 47.4332C43.1495 47.1988 42.8315 47.0671 42.5 47.0671H41.6667ZM47.5 47.0671C47.1685 47.0671 46.8505 47.1988 46.6161 47.4332C46.3817 47.6676 46.25 47.9856 46.25 48.3171C46.25 48.6486 46.3817 48.9665 46.6161 49.201C46.8505 49.4354 47.1685 49.5671 47.5 49.5671H58.3333C58.6649 49.5671 58.9828 49.4354 59.2172 49.201C59.4516 48.9665 59.5833 48.6486 59.5833 48.3171C59.5833 47.9856 59.4516 47.6676 59.2172 47.4332C58.9828 47.1988 58.6649 47.0671 58.3333 47.0671H47.5ZM41.6667 52.9004C41.3351 52.9004 41.0172 53.0321 40.7828 53.2665C40.5484 53.5009 40.4167 53.8189 40.4167 54.1504C40.4167 54.4819 40.5484 54.7999 40.7828 55.0343C41.0172 55.2687 41.3351 55.4004 41.6667 55.4004H42.5C42.8315 55.4004 43.1495 55.2687 43.3839 55.0343C43.6183 54.7999 43.75 54.4819 43.75 54.1504C43.75 53.8189 43.6183 53.5009 43.3839 53.2665C43.1495 53.0321 42.8315 52.9004 42.5 52.9004H41.6667ZM47.5 52.9004C47.1685 52.9004 46.8505 53.0321 46.6161 53.2665C46.3817 53.5009 46.25 53.8189 46.25 54.1504C46.25 54.4819 46.3817 54.7999 46.6161 55.0343C46.8505 55.2687 47.1685 55.4004 47.5 55.4004H58.3333C58.6649 55.4004 58.9828 55.2687 59.2172 55.0343C59.4516 54.7999 59.5833 54.4819 59.5833 54.1504C59.5833 53.8189 59.4516 53.5009 59.2172 53.2665C58.9828 53.0321 58.6649 52.9004 58.3333 52.9004H47.5Z" fill="#1877F2"/>
</svg>
