<svg width="100" height="100" viewBox="0 0 100 100" fill="none" xmlns="http://www.w3.org/2000/svg">
<rect width="100" height="100" rx="50" fill="#FFB7C0"/>
<g opacity="0.32">
<path d="M64.9997 43.3333H51.6663C51.2243 43.3333 50.8004 43.1577 50.4878 42.8452C50.1753 42.5326 49.9997 42.1087 49.9997 41.6667C49.9997 41.2246 50.1753 40.8007 50.4878 40.4882C50.8004 40.1756 51.2243 40 51.6663 40H64.9997C65.4417 40 65.8656 40.1756 66.1782 40.4882C66.4907 40.8007 66.6663 41.2246 66.6663 41.6667C66.6663 42.1087 66.4907 42.5326 66.1782 42.8452C65.8656 43.1577 65.4417 43.3333 64.9997 43.3333ZM64.9997 50H51.6663C51.2243 50 50.8004 49.8244 50.4878 49.5118C50.1753 49.1993 49.9997 48.7754 49.9997 48.3333C49.9997 47.8913 50.1753 47.4674 50.4878 47.1548C50.8004 46.8423 51.2243 46.6667 51.6663 46.6667H64.9997C65.4417 46.6667 65.8656 46.8423 66.1782 47.1548C66.4907 47.4674 66.6663 47.8913 66.6663 48.3333C66.6663 48.7754 66.4907 49.1993 66.1782 49.5118C65.8656 49.8244 65.4417 50 64.9997 50Z" fill="#E7000B"/>
<path d="M64.9997 56.6667H34.9997C34.5576 56.6667 34.1337 56.4911 33.8212 56.1785C33.5086 55.866 33.333 55.442 33.333 55C33.333 54.558 33.5086 54.1341 33.8212 53.8215C34.1337 53.5089 34.5576 53.3333 34.9997 53.3333H64.9997C65.4417 53.3333 65.8656 53.5089 66.1782 53.8215C66.4907 54.1341 66.6663 54.558 66.6663 55C66.6663 55.442 66.4907 55.866 66.1782 56.1785C65.8656 56.4911 65.4417 56.6667 64.9997 56.6667ZM51.6663 63.3333H34.9997C34.5576 63.3333 34.1337 63.1577 33.8212 62.8452C33.5086 62.5326 33.333 62.1087 33.333 61.6667C33.333 61.2246 33.5086 60.8007 33.8212 60.4882C34.1337 60.1756 34.5576 60 34.9997 60H51.6663C52.1084 60 52.5323 60.1756 52.8449 60.4882C53.1574 60.8007 53.333 61.2246 53.333 61.6667C53.333 62.1087 53.1574 62.5326 52.8449 62.8452C52.5323 63.1577 52.1084 63.3333 51.6663 63.3333Z" fill="#E7000B"/>
</g>
<rect x="33.333" y="36.6667" width="13.3333" height="13.3333" rx="2" fill="#E7000B"/>
</svg>
