<svg width="100" height="100" viewBox="0 0 100 100" fill="none" xmlns="http://www.w3.org/2000/svg">
<rect width="100" height="100" rx="50" fill="#E5D1FF"/>
<path d="M46.2497 50C46.2497 49.0054 46.6448 48.0516 47.348 47.3483C48.0513 46.6451 49.0051 46.25 49.9997 46.25C50.9942 46.25 51.9481 46.6451 52.6513 47.3483C53.3546 48.0516 53.7497 49.0054 53.7497 50C53.7497 50.9946 53.3546 51.9484 52.6513 52.6516C51.9481 53.3549 50.9942 53.75 49.9997 53.75C49.0051 53.75 48.0513 53.3549 47.348 52.6516C46.6448 51.9484 46.2497 50.9946 46.2497 50Z" fill="#8A38F5"/>
<path fill-rule="evenodd" clip-rule="evenodd" d="M33.333 50C33.333 52.7333 34.0413 53.6517 35.458 55.4933C38.2863 59.1667 43.0297 63.3333 49.9997 63.3333C56.9697 63.3333 61.713 59.1667 64.5413 55.4933C65.958 53.6533 66.6663 52.7317 66.6663 50C66.6663 47.2667 65.958 46.3483 64.5413 44.5067C61.713 40.8333 56.9697 36.6667 49.9997 36.6667C43.0297 36.6667 38.2863 40.8333 35.458 44.5067C34.0413 46.35 33.333 47.2683 33.333 50ZM49.9997 43.75C48.3421 43.75 46.7524 44.4085 45.5803 45.5806C44.4082 46.7527 43.7497 48.3424 43.7497 50C43.7497 51.6576 44.4082 53.2473 45.5803 54.4194C46.7524 55.5915 48.3421 56.25 49.9997 56.25C51.6573 56.25 53.247 55.5915 54.4191 54.4194C55.5912 53.2473 56.2497 51.6576 56.2497 50C56.2497 48.3424 55.5912 46.7527 54.4191 45.5806C53.247 44.4085 51.6573 43.75 49.9997 43.75Z" fill="#8A38F5"/>
</svg>
