<svg width="34" height="34" viewBox="0 0 34 34" fill="none" xmlns="http://www.w3.org/2000/svg">
<g filter="url(#filter0_d_2992_10293)">
<rect x="4" y="4" width="26" height="26" rx="13" fill="white" fill-opacity="0.05" shape-rendering="crispEdges"/>
<g clip-path="url(#clip0_2992_10293)">
<path d="M16.9004 12.9316H16.1844V20.1526H16.9004V12.9316Z" fill="#4C889B"/>
<path d="M13.6403 13.6647C13.1053 13.6647 12.5336 13.4724 12.0703 12.826L12.6522 12.4087C13.2066 13.1809 13.9502 12.9815 14.7265 12.6879L14.8185 12.6531C15.335 12.4609 15.9477 12.3545 16.5419 12.3545V13.0704C16.0377 13.0704 15.4997 13.1625 15.0681 13.3241L14.9791 13.3579C14.659 13.4785 14.167 13.6647 13.6403 13.6647ZM18.9588 21.5985C18.7491 21.3797 17.7406 21.0943 17.4747 20.8468C17.2088 20.5993 17.4778 20.3119 17.351 19.7237C17.1894 18.974 16.5419 18.8871 16.5419 18.8871C16.5419 18.8871 15.8945 18.974 15.7329 19.7237C15.6061 20.3108 15.8761 20.5993 15.6091 20.8468C15.3432 21.0943 14.3337 21.3797 14.1251 21.5985C13.9062 21.8276 13.897 22.1314 14.1251 22.2357C14.1251 22.2357 14.8901 22.5497 16.5419 22.5497C18.1937 22.5497 18.9588 22.2357 18.9588 22.2357C19.1541 22.1744 19.1777 21.8276 18.9588 21.5985Z" fill="#4C889B"/>
<path d="M16.1875 13.8834C16.1875 13.9335 16.1373 14.1862 16.4247 14.2465C16.6764 14.2987 16.9014 14.1882 16.9014 13.8773C16.9014 13.6216 16.8768 13.5029 16.8768 13.5029C16.8768 13.5029 16.1875 13.73 16.1875 13.8834Z" fill="#335E68"/>
<path d="M15.6897 13.1042C15.6897 12.6347 16.0701 11.3613 16.5406 11.3613C17.0111 11.3613 17.3916 12.6347 17.3916 13.1042C17.3916 13.5736 17.0111 13.9551 16.5406 13.9551C16.0701 13.9551 15.6897 13.5747 15.6897 13.1042Z" fill="#4C889B"/>
<path d="M16.542 11.668C16.2313 11.668 15.9794 11.4162 15.9794 11.1055C15.9794 10.7948 16.2313 10.543 16.542 10.543C16.8526 10.543 17.1045 10.7948 17.1045 11.1055C17.1045 11.4162 16.8526 11.668 16.542 11.668Z" fill="#4C889B"/>
<path d="M12.4287 13.0372C12.118 13.0372 11.8661 12.7853 11.8661 12.4746C11.8661 12.164 12.118 11.9121 12.4287 11.9121C12.7394 11.9121 12.9912 12.164 12.9912 12.4746C12.9912 12.7853 12.7394 13.0372 12.4287 13.0372Z" fill="#4C889B"/>
<path d="M19.4437 13.6647C18.9169 13.6647 18.425 13.4785 18.1048 13.3579L18.0159 13.3241C17.5832 13.1635 17.0462 13.0704 16.542 13.0704V12.3545C17.1373 12.3545 17.7489 12.4609 18.2654 12.6531L18.3575 12.6879C19.1348 12.9815 19.8773 13.1809 20.4317 12.4087L21.0137 12.826C20.5493 13.4724 19.9786 13.6647 19.4437 13.6647Z" fill="#4C889B"/>
<path d="M17.0388 19.3986C17.186 19.5101 17.1687 19.7075 17.1605 19.7372C17.14 19.8088 17.0684 19.8517 16.9999 19.8773C16.8219 19.9428 16.6194 19.9274 16.4486 19.8487C16.3249 19.7914 16.0743 19.6165 16.0998 19.4518C16.1418 19.1808 16.8905 19.2861 17.0388 19.3986ZM16.241 21.9147C17.0019 22.0876 17.8018 22.0006 18.4543 21.7787C18.7274 21.6856 18.6292 21.5854 18.6139 21.5731C18.4819 21.4647 18.3142 21.39 18.1352 21.3757C17.81 21.3501 17.5522 21.4759 17.2403 21.569C16.8864 21.6743 16.511 21.7091 16.1438 21.6703C16.0917 21.6651 16.0344 21.66 15.9904 21.6897C15.8196 21.8042 16.241 21.9147 16.241 21.9147ZM16.6276 11.1232C16.6828 11.1477 16.7462 11.162 16.8035 11.1416C16.8843 11.113 16.9303 11.0209 16.9222 10.936C16.9068 10.7816 16.6675 10.5719 16.5059 10.6527C16.2921 10.7601 16.4824 11.0577 16.6276 11.1232ZM17.139 12.7811C16.9948 12.953 16.6716 12.9274 16.511 12.5316C16.4026 12.2636 16.4353 11.9608 16.4507 11.8678C16.4895 11.6182 16.7104 11.5599 16.8639 11.7737C17.186 12.2206 17.2331 12.6696 17.139 12.7811Z" fill="#81AFC1"/>
<path d="M20.6547 12.7316C20.5525 12.7316 20.4696 12.6487 20.4696 12.5465C20.4696 12.4442 20.5525 12.3613 20.6547 12.3613C20.757 12.3613 20.8398 12.4442 20.8398 12.5465C20.8398 12.6487 20.757 12.7316 20.6547 12.7316Z" fill="#4C889B"/>
<path d="M22.7402 19.4407L20.8419 12.502C20.8419 12.502 20.7325 12.3711 20.6548 12.3711C20.577 12.3711 20.4635 12.502 20.4635 12.502L18.5601 19.4499L18.8311 19.5256L20.5136 13.3653L20.7949 13.3918L22.4692 19.5153L22.7402 19.4407Z" fill="#4C889B"/>
<path d="M18.5519 19.4551H22.7617C22.7617 19.9245 21.6551 20.5597 20.6568 20.5597C19.6586 20.5597 18.5519 19.8816 18.5519 19.4551Z" fill="#81AFC1"/>
<path d="M20.6568 19.7887C19.4943 19.7887 18.5519 19.6454 18.5519 19.4686C18.5519 19.2918 19.4943 19.1484 20.6568 19.1484C21.8193 19.1484 22.7617 19.2918 22.7617 19.4686C22.7617 19.6454 21.8193 19.7887 20.6568 19.7887Z" fill="#335E68"/>
<path d="M20.6568 19.2517C19.7833 19.2517 19.1359 19.3325 18.8311 19.4144C18.7769 19.4287 18.7769 19.5074 18.8311 19.5218C19.1359 19.6036 19.7833 19.6844 20.6568 19.6844C21.5303 19.6844 22.1777 19.6046 22.4825 19.5228C22.5367 19.5085 22.5367 19.4297 22.4825 19.4154C22.1777 19.3325 21.5303 19.2517 20.6568 19.2517ZM20.6568 19.1484C21.8197 19.1484 22.7617 19.2916 22.7617 19.4686C22.7617 19.6455 21.8197 19.7887 20.6568 19.7887C19.4939 19.7887 18.5519 19.6455 18.5519 19.4686C18.5519 19.2916 19.4939 19.1484 20.6568 19.1484ZM21.293 20.1968C21.0956 20.294 21.1324 20.3553 21.2531 20.3676C21.4924 20.3922 21.8852 20.2418 22.1204 20.0393C22.189 19.98 22.2728 19.7775 22.0458 19.8112C21.6939 19.8623 21.7195 19.9851 21.293 20.1968Z" fill="#A3CDD9"/>
<path d="M20.7949 12.5153V12.5122C20.7949 12.4345 20.7315 12.3711 20.6538 12.3711C20.576 12.3711 20.5126 12.4345 20.5126 12.5122V19.7946C20.5126 19.8723 20.576 19.9357 20.6538 19.9357C20.7315 19.9357 20.7949 19.8723 20.7949 19.7946V12.5153Z" fill="#4C889B"/>
<path d="M20.6552 13.0733C20.3446 13.0733 20.0927 12.8215 20.0927 12.5108C20.0927 12.2001 20.3446 11.9482 20.6552 11.9482C20.9659 11.9482 21.2178 12.2001 21.2178 12.5108C21.2178 12.8215 20.9659 13.0733 20.6552 13.0733Z" fill="#4C889B"/>
<path d="M20.5597 12.0612C20.4236 12.1226 20.485 12.2402 20.5126 12.275C20.5873 12.3701 20.709 12.3742 20.799 12.4764C20.8379 12.5204 20.8583 12.6217 20.9453 12.6452C20.9576 12.6494 20.9706 12.6509 20.9835 12.6496C20.9964 12.6484 21.0089 12.6444 21.0201 12.6379C21.0314 12.6314 21.0411 12.6226 21.0486 12.612C21.0562 12.6015 21.0614 12.5894 21.0639 12.5767C21.0987 12.3711 21.022 12.2279 20.887 12.1277C20.8246 12.0806 20.6957 11.9998 20.5597 12.0612Z" fill="#81AFC1"/>
<path d="M14.5234 19.4306L12.6006 12.4991C12.6006 12.4991 12.4901 12.3682 12.4124 12.3682C12.3347 12.3682 12.2211 12.5001 12.2211 12.5001L10.3422 19.4551L10.6143 19.5308L12.2764 13.3633L12.5576 13.3899L14.2534 19.5063L14.5234 19.4306Z" fill="#4C889B"/>
<path d="M10.3331 19.4636L14.543 19.4482C14.545 19.9177 13.4404 20.557 12.4421 20.56C11.4439 20.5641 10.3342 19.8891 10.3331 19.4636Z" fill="#81AFC1"/>
<path d="M10.333 19.4751C10.3324 19.2983 11.2743 19.1516 12.4368 19.1475C13.5993 19.1433 14.5422 19.2833 14.5428 19.4601C14.5434 19.6369 13.6015 19.7836 12.439 19.7877C11.2765 19.7918 10.3336 19.6519 10.333 19.4751Z" fill="#335E68"/>
<path d="M12.4361 19.2518C11.5626 19.2549 10.9152 19.3377 10.6114 19.4206C10.5572 19.4349 10.5582 19.5137 10.6114 19.528C10.9162 19.6088 11.5636 19.6875 12.4371 19.6845C13.3105 19.6814 13.958 19.5986 14.2617 19.5157C14.316 19.5014 14.3149 19.4226 14.2617 19.4083C13.958 19.3275 13.3095 19.2488 12.4361 19.2518ZM12.4361 19.1485C13.599 19.1444 14.542 19.2846 14.542 19.4615C14.543 19.6384 13.601 19.7847 12.4381 19.7888C11.2752 19.7929 10.3322 19.6528 10.3322 19.4758C10.3311 19.2999 11.2731 19.1526 12.4361 19.1485ZM13.0763 20.1938C12.8789 20.292 12.9342 20.338 13.0548 20.3503C13.2942 20.3749 13.6532 20.2051 13.9191 20.0026C13.9907 19.9473 14.1155 19.7499 13.8271 19.8052C13.4824 19.8727 13.4732 19.9964 13.0763 20.1938Z" fill="#A3CDD9"/>
<path d="M12.5555 12.5143V12.5112C12.5553 12.4739 12.5404 12.4382 12.5139 12.4119C12.4875 12.3856 12.4516 12.371 12.4143 12.3711C12.377 12.3712 12.3413 12.3862 12.315 12.4126C12.2888 12.4391 12.2741 12.4749 12.2742 12.5122V12.5174L12.2998 19.7946C12.2999 19.813 12.3036 19.8313 12.3107 19.8483C12.3178 19.8654 12.3282 19.8808 12.3413 19.8938C12.3544 19.9069 12.37 19.9172 12.3871 19.9242C12.4042 19.9312 12.4225 19.9347 12.4409 19.9347C12.4594 19.9346 12.4777 19.9309 12.4947 19.9238C12.5117 19.9166 12.5272 19.9062 12.5402 19.8931C12.5532 19.88 12.5635 19.8645 12.5705 19.8474C12.5775 19.8303 12.5811 19.812 12.5811 19.7935L12.5555 12.5143Z" fill="#4C889B"/>
<path d="M12.3726 12.0584C12.2365 12.1198 12.2938 12.2404 12.3255 12.2721C12.3859 12.3335 12.4575 12.3826 12.525 12.4348C12.5976 12.491 12.6569 12.5493 12.7704 12.4828C12.8993 12.4082 12.8205 12.2261 12.706 12.1402C12.6446 12.0942 12.5086 11.998 12.3726 12.0584Z" fill="#81AFC1"/>
</g>
</g>
<defs>
<filter id="filter0_d_2992_10293" x="0" y="0" width="34" height="34" filterUnits="userSpaceOnUse" color-interpolation-filters="sRGB">
<feFlood flood-opacity="0" result="BackgroundImageFix"/>
<feColorMatrix in="SourceAlpha" type="matrix" values="0 0 0 0 0 0 0 0 0 0 0 0 0 0 0 0 0 0 127 0" result="hardAlpha"/>
<feOffset/>
<feGaussianBlur stdDeviation="2"/>
<feComposite in2="hardAlpha" operator="out"/>
<feColorMatrix type="matrix" values="0 0 0 0 0 0 0 0 0 0 0 0 0 0 0 0 0 0 0.25 0"/>
<feBlend mode="normal" in2="BackgroundImageFix" result="effect1_dropShadow_2992_10293"/>
<feBlend mode="normal" in="SourceGraphic" in2="effect1_dropShadow_2992_10293" result="shape"/>
</filter>
<clipPath id="clip0_2992_10293">
<rect width="13.0918" height="13.0918" fill="white" transform="matrix(-1 0 0 1 23.0918 10)"/>
</clipPath>
</defs>
</svg>
