<svg width="34" height="34" viewBox="0 0 34 34" fill="none" xmlns="http://www.w3.org/2000/svg">
<g filter="url(#filter0_d_2992_10326)">
<circle cx="17" cy="17" r="13" fill="white"/>
</g>
<path d="M13.2503 21.7113H18.3306C18.934 21.7113 19.3711 21.5077 19.5078 20.8726L19.7907 19.5551H21.0181C21.3307 19.5551 21.6305 19.431 21.8515 19.2099C22.0725 18.9889 22.1967 18.6891 22.1967 18.3766V15.503C22.1967 14.7838 21.6121 14.4003 21.0486 14.4238H18.0314V13.4647C18.0314 13.1521 17.9073 12.8524 17.6862 12.6313C17.4652 12.4103 17.1654 12.2861 16.8529 12.2861H13.036C12.7234 12.2861 12.4236 12.4103 12.2026 12.6313C11.9816 12.8524 11.8574 13.1521 11.8574 13.4647V20.3184C11.8574 20.6878 12.0042 21.0421 12.2654 21.3033C12.5266 21.5645 12.8809 21.7113 13.2503 21.7113ZM18.0314 15.0667H20.1164C20.0898 15.1313 20.0684 15.2008 20.0521 15.2754L18.8791 20.738C18.7711 21.2403 18.0314 21.1618 18.0314 20.648V15.0667ZM13.9051 15.0718C13.8199 15.0718 13.7381 15.038 13.6779 14.9777C13.6176 14.9174 13.5837 14.8357 13.5837 14.7504C13.5837 14.6652 13.6176 14.5834 13.6779 14.5231C13.7381 14.4629 13.8199 14.429 13.9051 14.429C13.9904 14.429 14.0721 14.4629 14.1324 14.5231C14.1927 14.5834 14.2266 14.6652 14.2266 14.7504C14.2266 14.8357 14.1927 14.9174 14.1324 14.9777C14.0721 15.038 13.9904 15.0718 13.9051 15.0718ZM13.9064 18.9358H16.0493C16.1345 18.9358 16.2163 18.9697 16.2766 19.03C16.3368 19.0903 16.3707 19.172 16.3707 19.2573C16.3707 19.3425 16.3368 19.4243 16.2766 19.4846C16.2163 19.5448 16.1345 19.5787 16.0493 19.5787H13.9064C13.8212 19.5787 13.7394 19.5448 13.6791 19.4846C13.6189 19.4243 13.585 19.3425 13.585 19.2573C13.585 19.172 13.6189 19.0903 13.6791 19.03C13.7394 18.9697 13.8212 18.9358 13.9064 18.9358ZM13.9064 16.679H16.0493C16.1345 16.679 16.2163 16.7129 16.2766 16.7731C16.3368 16.8334 16.3707 16.9152 16.3707 17.0004C16.3707 17.0857 16.3368 17.1674 16.2766 17.2277C16.2163 17.288 16.1345 17.3218 16.0493 17.3218H13.9064C13.8212 17.3218 13.7394 17.288 13.6791 17.2277C13.6189 17.1674 13.585 17.0857 13.585 17.0004C13.585 16.9152 13.6189 16.8334 13.6791 16.7731C13.7394 16.7129 13.8212 16.679 13.9064 16.679Z" fill="#006FFF"/>
<defs>
<filter id="filter0_d_2992_10326" x="0" y="0" width="34" height="34" filterUnits="userSpaceOnUse" color-interpolation-filters="sRGB">
<feFlood flood-opacity="0" result="BackgroundImageFix"/>
<feColorMatrix in="SourceAlpha" type="matrix" values="0 0 0 0 0 0 0 0 0 0 0 0 0 0 0 0 0 0 127 0" result="hardAlpha"/>
<feOffset/>
<feGaussianBlur stdDeviation="2"/>
<feComposite in2="hardAlpha" operator="out"/>
<feColorMatrix type="matrix" values="0 0 0 0 0 0 0 0 0 0 0 0 0 0 0 0 0 0 0.25 0"/>
<feBlend mode="normal" in2="BackgroundImageFix" result="effect1_dropShadow_2992_10326"/>
<feBlend mode="normal" in="SourceGraphic" in2="effect1_dropShadow_2992_10326" result="shape"/>
</filter>
</defs>
</svg>
