<svg width="34" height="34" viewBox="0 0 34 34" fill="none" xmlns="http://www.w3.org/2000/svg">
<g filter="url(#filter0_d_2992_10340)">
<circle cx="17" cy="17" r="13" fill="white"/>
</g>
<g clip-path="url(#clip0_2992_10340)">
<path d="M18.1 18.25V18.37C17.75 18.67 17.5 19.12 17.5 19.6V21.35C17.5 21.58 17.55 21.8 17.635 22H14C13.445 22 13 21.555 13 21V13C13 12.7348 13.1054 12.4804 13.2929 12.2929C13.4804 12.1054 13.7348 12 14 12H14.5V15.5L15.75 14.75L17 15.5V12H20C20.2652 12 20.5196 12.1054 20.7071 12.2929C20.8946 12.4804 21 12.7348 21 13V16.055C20.84 16.02 20.67 16 20.5 16C19.2 16 18.1 17.03 18.1 18.25ZM22.5 19.65V21.4C22.5 21.7 22.2 22 21.85 22H19.1C18.8 22 18.5 21.7 18.5 21.35V19.6C18.5 19.3 18.8 19 19.1 19V18.25C19.1 17.55 19.8 17 20.5 17C21.2 17 21.9 17.55 21.9 18.25V19C22.2 19 22.5 19.3 22.5 19.65ZM21.25 18.25C21.25 17.85 20.9 17.6 20.5 17.6C20.1 17.6 19.75 17.85 19.75 18.25V19H21.25V18.25Z" fill="#FF9100"/>
</g>
<defs>
<filter id="filter0_d_2992_10340" x="0" y="0" width="34" height="34" filterUnits="userSpaceOnUse" color-interpolation-filters="sRGB">
<feFlood flood-opacity="0" result="BackgroundImageFix"/>
<feColorMatrix in="SourceAlpha" type="matrix" values="0 0 0 0 0 0 0 0 0 0 0 0 0 0 0 0 0 0 127 0" result="hardAlpha"/>
<feOffset/>
<feGaussianBlur stdDeviation="2"/>
<feComposite in2="hardAlpha" operator="out"/>
<feColorMatrix type="matrix" values="0 0 0 0 0 0 0 0 0 0 0 0 0 0 0 0 0 0 0.25 0"/>
<feBlend mode="normal" in2="BackgroundImageFix" result="effect1_dropShadow_2992_10340"/>
<feBlend mode="normal" in="SourceGraphic" in2="effect1_dropShadow_2992_10340" result="shape"/>
</filter>
<clipPath id="clip0_2992_10340">
<rect width="12" height="12" fill="white" transform="translate(11 11)"/>
</clipPath>
</defs>
</svg>
